<?xml version="1.0" encoding="UTF-8" standalone="no"?>
<svg width="200px" height="200px" viewBox="0 0 200 200" version="1.1" xmlns="http://www.w3.org/2000/svg" xmlns:xlink="http://www.w3.org/1999/xlink" xmlns:sketch="http://www.bohemiancoding.com/sketch/ns">
    <title>Strava</title>
    <description>Created with Sketch (http://www.bohemiancoding.com/sketch)</description>
    <defs></defs>
    <g id="Page-1" stroke="none" stroke-width="1" fill="none" fill-rule="evenodd" sketch:type="MSPage">
        <path d="M41,86.5497647 L41,83 L72,83 L72,92.6130952 L62.1318328,92.6130952 L62.1318328,117 L50.8681672,117 L50.8681672,92.6130952 L41,92.6130952 L41,86.9828526 L35.7083853,94.2372529 C33.5380941,92.6675664 30.2136764,91.3668971 27.4115124,91.0786044 C26.3474154,90.9696566 23.6077718,90.7618177 23.330598,91.9820332 C22.9713142,93.5714142 25.0140638,93.9342942 26.1523517,94.2473096 C33.3634538,96.2305789 42.6339776,96.4183043 41.965843,106.760385 C41.4831855,114.230434 34.5309179,116.963347 27.2172824,116.999384 C19.6552326,117.036259 15.9206811,115.42006 10,111.434246 L16.0019577,104.193407 C17.4195034,105.25062 17.4095001,105.249363 20.1374732,106.572659 C22.2514961,107.522601 29.4621813,109.153465 30.4587564,107.159301 C31.3136185,105.448402 28.1396666,104.832428 26.9146837,104.586457 C20.4092285,103.277826 11.3037586,101.446665 11.8314307,92.9152131 C12.3215906,84.9905169 18.8232946,82.1981007 25.7530548,82.0128894 C31.7634158,81.8525829 36.0767621,83.1775632 41,86.5497647 L41,86.5497647 Z M0,100 C0,155.2286 44.7714,200 100,200 C155.2286,200 200,155.2286 200,100 C200,44.7714 155.2286,0 100,0 C44.7714,0 0,44.7714 0,100 Z M146.950139,119 L165,83 L154.229917,83 L147.049861,97.4606742 L139.770083,83 L129,83 L146.950139,119 Z M106.075243,113.87384 L100.223412,105.402955 C101.360147,104.801674 101.762881,104.634861 102.823525,103.766343 C105.063364,101.932666 106.22196,99.9460415 106.711714,97.0640078 C107.438148,92.7903288 106.101728,88.8649813 102.769715,86.1178263 C100.305388,84.0858223 96.1561367,83.1164607 92.757282,83.1164607 L75,83.1164607 L75,117 L86.3000885,117 L86.3000885,107.318989 C89.1381428,107.318989 88.5449722,107.054274 89.4479703,108.408103 L94.8289649,116.542841 C95.0160385,116.855457 95.0185609,117 95.4814105,117 L115.155672,117 L122.823589,102.478483 L130.289299,117 L141,117 L122.821487,81 L106.075243,113.87384 Z M91.2424441,100 L86,100 L86,93 L90.5500459,93 C92.5819051,93 95.0745389,93.5752564 94.9982927,96.3285897 C94.92658,98.8037179 93.5438441,100 91.2424441,100 Z M171.950139,81 L190,117 L179.229917,117 L172.049861,102.539326 L164.770083,117 L154,117 L171.950139,81 Z" id="Strava" fill="#808080" sketch:type="MSShapeGroup"></path>
    </g>
</svg>