<?xml version="1.0" encoding="UTF-8" standalone="no"?>
<svg width="200px" height="200px" viewBox="0 0 200 200" version="1.1" xmlns="http://www.w3.org/2000/svg" xmlns:xlink="http://www.w3.org/1999/xlink" xmlns:sketch="http://www.bohemiancoding.com/sketch/ns">
    <title>LinkedIn</title>
    <description>Created with Sketch (http://www.bohemiancoding.com/sketch)</description>
    <defs></defs>
    <g id="Page-1" stroke="none" stroke-width="1" fill="none" fill-rule="evenodd" sketch:type="MSPage">
        <path d="M100,0 C44.771526,1.51545443e-14 0,44.771526 0,100 C-7.5791226e-15,155.228474 44.771526,200 100,200 C155.228474,200 200,155.228474 200,100 C200,44.771526 155.228474,-2.27373675e-14 100,0 Z M82.3806444,80.7221807 L105.914967,80.7221807 L105.914967,91.5027153 L106.249586,91.5027153 C109.525325,85.2988733 117.529368,78.7542871 129.463839,78.7542871 C154.286864,78.7542871 158.87198,95.0977583 158.87198,116.357901 L158.87198,159.65156 L134.369024,159.65156 L134.369024,121.269978 C134.369024,112.111232 134.189081,100.338328 121.617533,100.338328 C108.852259,100.338328 106.90504,110.310265 106.90504,120.605335 L106.90504,159.65156 L82.3806444,159.65156 L82.3806444,80.7221807 L82.3806444,80.7221807 Z M54.7252307,41.4822291 C62.5677078,41.4822291 68.9423048,47.8568261 68.9423048,55.7023661 C68.9423048,63.556329 62.5677078,69.930926 54.7252307,69.930926 C46.8620791,69.930926 40.5058594,63.556329 40.5058594,55.7023661 C40.5058594,47.8568261 46.8620791,41.4822291 54.7252307,41.4822291 Z M42.4530786,80.7221807 L66.9950856,80.7221807 L66.9950856,159.65156 L42.4530786,159.65156 L42.4530786,80.7221807 L42.4530786,80.7221807 Z" id="LinkedIn" fill="#808080" sketch:type="MSShapeGroup"></path>
    </g>
</svg>