<?xml version="1.0" encoding="UTF-8" standalone="no"?>
<svg width="200px" height="200px" viewBox="0 0 200 200" version="1.1" xmlns="http://www.w3.org/2000/svg" xmlns:xlink="http://www.w3.org/1999/xlink" xmlns:sketch="http://www.bohemiancoding.com/sketch/ns">
    <title>Email</title>
    <description>Created with Sketch (http://www.bohemiancoding.com/sketch)</description>
    <defs></defs>
    <g id="Page-1" stroke="none" stroke-width="1" fill="none" fill-rule="evenodd" sketch:type="MSPage">
        <path d="M38.8740909,62.6461034 C40.8760013,60.0774955 44.0017354,58.4312 47.525,58.4312 L157.05,58.4312 C159.678733,58.4312 162.085007,59.3476157 163.968171,60.8797969 L163.968171,60.8797969 L99.75,94.8175812 L38.8740909,62.6461034 Z M36.8768341,66.781991 C36.6754632,67.6145981 36.5688,68.4849736 36.5688,69.3812 L36.5688,129.6188 C36.5688,135.6864 41.4574,140.5688 47.525,140.5688 L157.05,140.5688 C163.1176,140.5688 168,135.6864 168,129.6188 L168,69.3812 C168,67.6380902 167.597052,65.9927958 166.878815,64.5329757 L99.7671275,100 L99.75,99.9564542 L99.7328725,100 L36.8768341,66.781991 Z M100,0 C44.7714,0 0,44.7714 0,100 C0,155.2286 44.7714,200 100,200 C155.2286,200 200,155.2286 200,100 C200,44.7714 155.2286,0 100,0 Z" id="Email" fill="#808080" sketch:type="MSShapeGroup"></path>
    </g>
</svg>