<?xml version="1.0" encoding="UTF-8" standalone="no"?>
<svg width="200px" height="200px" viewBox="0 0 200 200" version="1.1" xmlns="http://www.w3.org/2000/svg" xmlns:xlink="http://www.w3.org/1999/xlink" xmlns:sketch="http://www.bohemiancoding.com/sketch/ns">
    <title>GitHub</title>
    <description>Created with Sketch (http://www.bohemiancoding.com/sketch)</description>
    <defs></defs>
    <g id="Page-1" stroke="none" stroke-width="1" fill="none" fill-rule="evenodd" sketch:type="MSPage">
        <path d="M0,100 C0,155.2286 44.7714,200 100,200 C155.2286,200 200,155.2286 200,100 C200,44.7714 155.2286,0 100,0 C44.7714,0 0,44.7714 0,100 Z M150.6562,25.4 C152.7698,28.626 153.9846,37.9372 153.1562,44.5938 L152.625,48.8562 L155.2062,51.9874 C160.3374,58.2082 163.155,65.7298 163.7186,74.725 C164.034,79.7584 163.3252,91.5746 162.4686,95.5688 C162.1878,96.8788 162.0424,98.0364 162.1498,98.1438 C162.2572,98.2512 166.8388,98.1216 172.331,97.8562 C178.1866,97.5734 183.088,97.5428 184.181,97.7812 C185.5178,98.0728 182.883,98.2622 174.8622,98.45 C168.6674,98.595 163.112,98.9354 162.4122,99.2124 C161.564,99.5484 161.0194,100.2144 160.7498,101.2436 C160.2702,103.0744 159.043,102.8318 172.0686,103.4686 C177.4508,103.7316 182.584,104.134 183.481,104.3624 C185.6578,104.9166 184.4476,104.941 180.456,104.4186 C178.6618,104.1838 173.3102,103.9562 168.5684,103.9186 L159.9496,103.8562 L158.362,106.575 C156.0142,110.5964 149.9218,116.4444 145.9182,118.5188 C141.0736,121.029 133.606,123.3814 127.037,124.4688 C123.8662,124.9936 120.9826,125.524 120.6308,125.6438 C120.1902,125.7938 120.6514,126.5576 122.1058,128.1126 C124.5016,130.674 125.7218,132.867 126.8246,136.5626 C127.4282,138.5848 127.6564,142.1844 127.887,153.6314 C128.1692,167.6364 128.1454,168.1478 127.287,168.4064 C124.4818,169.2516 119.346,170.5814 118.8808,170.5814 C118.4844,170.5814 118.2874,167.082 118.1496,157.6502 C117.9526,144.1822 117.7022,142.432 115.7496,140.8126 C115.0346,140.2196 114.9808,141.315 114.9808,155.8064 L114.9808,171.4376 L111.837,171.7814 C110.107,171.9716 107.8496,172.1466 106.8246,172.169 L104.9622,172.2128 L104.6684,163.8252 C104.5082,159.212 104.3504,151.712 104.3184,147.1628 L104.2622,138.894 L102.8684,138.894 L101.4684,138.894 L101.4684,155.669 L101.4684,172.444 L97.6246,172.369 C95.5102,172.328 93.0952,172.2098 92.2622,172.1066 L90.7498,171.919 L90.7498,155.8128 C90.7498,141.2492 90.6786,139.7714 90.0186,140.319 C87.8628,142.1082 87.7304,143.0656 87.5748,157.6628 L87.4248,171.544 L85.706,171.2316 C84.762,171.0588 82.6282,170.575 80.9622,170.1628 L77.9372,169.4128 L77.806,160.4004 L77.681,151.388 L75.3748,151.7068 C71.1312,152.2904 63.6152,152.0834 61.0248,151.313 C54.8256,149.4696 51.088,146.0926 47.831,139.3818 C45.0914,133.737 42.6232,130.4148 38.9622,127.4568 C35.1348,124.3644 34.4232,123.297 35.7246,122.6006 C36.2236,122.3336 37.7496,122.1218 39.1122,122.1256 C41.4146,122.132 45.6202,124.0678 48.212,126.4568 C49.3702,127.5244 51.2484,129.6986 52.387,131.2944 C57.1718,137.9996 62.2318,140.692 69.0246,140.1506 C72.9632,139.8368 77.6932,138.4634 78.1996,137.4882 C78.3978,137.1062 79.0304,135.5618 79.6058,134.057 C80.2762,132.3034 81.56,130.3448 83.1746,128.6008 C85.553,126.0318 85.6276,125.8664 84.6058,125.6632 C84.0104,125.5448 81.0126,125.0038 77.937,124.457 C66.5278,122.4286 58.1082,118.6336 51.7932,112.6694 C49.683,110.6764 47.272,107.974 46.4308,106.6632 L44.8996,104.2756 L34.8558,104.5632 C29.2726,104.7216 23.162,105.154 21.0996,105.5382 C17.7304,106.1658 16.5926,106.1826 17.1808,105.5944 C17.5474,105.2278 31.0384,103.96 37.7432,103.6632 C41.2674,103.5072 44.1494,103.181 44.1494,102.9382 C44.1494,102.6954 43.8384,101.891 43.4556,101.1506 C42.5108,99.3238 41.229,99.1882 27.2556,99.3694 C20.912,99.4518 15.7242,99.3752 15.7244,99.207 C15.7254,98.5884 25.0512,98.224 33.5932,98.507 C41.7982,98.7788 42.3604,98.7478 42.0682,97.9946 C41.8962,97.551 41.3,95.4044 40.7432,93.2258 C39.8556,89.7522 39.727,88.004 39.7244,79.0134 C39.7216,69.4458 39.7984,68.5452 40.8306,65.501 C42.279,61.2302 44.7806,56.4408 47.1994,53.326 L49.1432,50.826 L48.2308,46.976 C47.089,42.1816 47.2926,34.6312 48.7058,29.4948 C50.0216,24.7126 50.2068,24.5514 54.1558,24.8572 C59.2318,25.2504 65.6766,27.8206 73.7434,32.6634 L77.4746,34.901 L81.1996,34.001 C92.476,31.2752 108.7204,31.018 120.7496,33.376 L124.4184,34.0948 L128.2622,31.7386 C133.5286,28.509 138.6762,26.2346 143.1434,25.1636 C145.3898,24.624 146.9306,24.3292 148.0312,24.2876 C149.4462,24.234 150.1326,24.601 150.6562,25.4 Z M44.8113392,125.5 C43.8279276,125.5 43.5,125.686465 43.5,126.256901 C43.5,127.558949 44.7160805,128.004007 46.0532305,127.191897 C47.0542826,126.583882 46.2569319,125.5 44.8113392,125.5 L44.8113392,125.5 L44.8113392,125.5 Z M41.3302053,123.6 C40.4451349,123.6 40.15,123.786465 40.15,124.356901 C40.15,125.658949 41.2444724,126.104007 42.4479075,125.291897 C43.3488544,124.683882 42.6312387,123.6 41.3302053,123.6 L41.3302053,123.6 L41.3302053,123.6 Z M48.3,128.7376 C47.3198,128.7494 46.7682,129.372 47.1124,130.2688 C47.505,131.2918 49.9122,131.027 50.1186,129.9376 C50.2206,129.3996 49.8658,129.0394 49.0374,128.8314 C48.7708,128.7642 48.5262,128.7348 48.3,128.7376 L48.3,128.7376 L48.3,128.7376 Z M51.1688,132.8312 C49.4992,132.8312 48.8476,133.6996 49.925,134.4874 C50.986,135.2632 52.5374,134.8028 52.5374,133.7124 C52.5376,133.052 52.2002,132.8312 51.1688,132.8312 L51.1688,132.8312 L51.1688,132.8312 Z M53.95,136.175 C53.8814,136.175 53.8118,136.1778 53.7438,136.1874 C53.1452,136.273 52.7166,136.7296 52.625,137.375 C52.4988,138.263 52.6868,138.425 53.875,138.425 C54.6466,138.425 55.416,138.205 55.5812,137.9374 C56.016,137.234 54.9778,136.1766 53.95,136.175 L53.95,136.175 L53.95,136.175 Z M57.7124,139.4062 C56.6628,139.4298 56.0858,140.0874 56.4312,140.9874 C56.871,142.1332 59.2936,141.7424 59.2936,140.525 C59.2936,139.8996 58.9332,139.5422 58.1936,139.4374 C58.0258,139.4138 57.8624,139.403 57.7124,139.4062 L57.7124,139.4062 L57.7124,139.4062 Z M74.4376,140.2876 C73.9878,140.2876 73.363,140.6032 73.0438,140.9876 C72.3314,141.8458 73.1532,143.0876 74.4376,143.0876 C74.8874,143.0876 75.5184,142.772 75.8376,142.3876 C76.5498,141.5294 75.7218,140.2876 74.4376,140.2876 L74.4376,140.2876 L74.4376,140.2876 Z M68.7624,141.2438 C67.7892,141.3118 67.1762,142.1646 67.6312,143.35 C67.9936,144.294 69.7554,144.0466 70.4312,142.9562 C70.8276,142.3162 70.7836,142.0254 70.2436,141.6812 C69.718,141.3462 69.2048,141.213 68.7624,141.2438 L68.7624,141.2438 L68.7624,141.2438 Z M63.275,141.3188 C62.6408,141.3448 62.0504,141.7068 61.9312,142.3312 C61.6416,143.8496 63.6208,144.5664 64.6562,143.3188 C65.1198,142.7602 65.116,142.4766 64.6374,141.9 C64.2926,141.4844 63.7684,141.2986 63.275,141.3188 L63.275,141.3188 L63.275,141.3188 Z" id="GitHub" fill="#808080" sketch:type="MSShapeGroup"></path>
    </g>
</svg>