<?xml version="1.0" ?><!DOCTYPE svg  PUBLIC '-//W3C//DTD SVG 1.1//EN'  'http://www.w3.org/Graphics/SVG/1.1/DTD/svg11.dtd'><svg id="Lager_1" style="enable-background:new 0 0 128 128;" version="1.1" viewBox="0 0 128 128" xml:space="preserve" xmlns="http://www.w3.org/2000/svg" xmlns:xlink="http://www.w3.org/1999/xlink"><path d="M64,14c-27.6,0-50,22.4-50,50s22.4,50,50,50s50-22.4,50-50S91.6,14,64,14z M66.7,38.8l1.6-2.2c-3.1,5.6-0.1,12.4,4.6,16  c0.9,0.6,1.8,1.1,2.7,1.6c0.5,0.2,1,0.4,1.5,0.6c0.4,0.1,0.9,0.3,1.3,0.4c5.3,1.3,9.6,0.4,12.2-3.3c-0.8,1.2-3.7,8.8-14.5,6.7  c-0.2,0-0.5-0.1-0.7-0.2c-0.1-0.1-0.1-0.1-0.2-0.1c-0.2-0.1-0.3-0.1-0.5-0.2c-3.9-1.4-7.3-4.4-8.9-8.3  C64.2,46.2,64.5,42.1,66.7,38.8z M57.8,93c-0.4,0-0.8-0.2-1.2-0.3c-0.1,0-0.2-0.1-0.3-0.1c-0.3-0.1-0.7-0.3-1.1-0.4h-0.1  c-0.3-0.1-0.7-0.3-1-0.4c-0.1,0-0.2-0.1-0.3-0.1c-0.4-0.1-0.7-0.2-1.1-0.4c-0.1,0-0.1-0.1-0.2-0.1c-0.3-0.1-0.6-0.3-0.9-0.4  c0,0-0.1-0.1-0.2-0.1c0-0.1-0.1-0.1-0.1-0.1c-0.2-0.1-0.4-0.2-0.6-0.3c-0.1,0-0.3-0.1-0.4-0.2c-0.3-0.2-0.5-0.3-0.8-0.5  c-0.1-0.1-0.2-0.1-0.3-0.2c-0.4-0.3-0.7-0.5-1.1-0.7c-0.1-0.1-0.2-0.1-0.3-0.2c-0.2-0.2-0.5-0.3-0.7-0.5C47,87.9,47,87.9,47,87.9  c-0.1-0.1-0.2-0.1-0.3-0.2c-0.2-0.2-0.5-0.3-0.7-0.5c-0.1-0.1-0.2-0.2-0.3-0.3c-0.2-0.2-0.4-0.3-0.6-0.5c-0.1-0.1-0.2-0.2-0.3-0.3  c-0.3-0.2-0.5-0.4-0.8-0.6l-0.1-0.1c-0.2-0.3-0.5-0.5-0.8-0.8c-0.1,0-0.2-0.1-0.3-0.2c-0.2-0.2-0.4-0.4-0.6-0.6c0,0-0.1-0.1-0.2-0.2  c-0.3-0.3-0.5-0.5-0.8-0.8s-0.6-0.6-0.8-0.9c-0.1,0-0.1-0.1-0.2-0.2c-0.1-0.3-0.3-0.5-0.5-0.7c-0.1-0.1-0.1-0.2-0.2-0.3  c-0.2-0.3-0.4-0.5-0.6-0.8l-0.1-0.1c-0.2-0.3-0.4-0.6-0.6-0.9c-0.1-0.1-0.1-0.2-0.2-0.3c-0.1-0.2-0.3-0.5-0.4-0.7  c-0.1-0.2-0.1-0.3-0.2-0.4c-0.1-0.3-0.3-0.5-0.4-0.7s-0.1-0.3-0.2-0.4c0-0.1-0.1-0.1-0.1-0.2c-0.1-0.2-0.1-0.3-0.2-0.4  c-0.1-0.2-0.2-0.4-0.3-0.6c-4-8-4.6-17.8,0.6-25.3l3.7-5c-4.6,8.9-2.6,19.7,3.2,27.6c0.2,0.3,0.4,0.6,0.6,0.9  c0.1,0.1,0.1,0.2,0.2,0.3c0.2,0.2,0.4,0.5,0.6,0.7c0.1,0,0.1,0.1,0.2,0.2c0.3,0.3,0.5,0.6,0.8,0.9c0.3,0.3,0.5,0.5,0.8,0.8  c0,0,0.1,0.1,0.2,0.2c0.2,0.2,0.4,0.4,0.6,0.6c0,0,0.1,0.1,0.2,0.2c0.3,0.3,0.6,0.5,0.9,0.8c0,0.1,0.1,0.1,0.1,0.1  c0.3,0.2,0.5,0.5,0.8,0.7c0.1,0,0.2,0.1,0.3,0.2c0.3,0.2,0.5,0.3,0.7,0.5c0.1,0,0.2,0.1,0.3,0.2c0.2,0.2,0.5,0.3,0.7,0.5  c0,0.1,0.1,0.1,0.2,0.2c0.3,0.2,0.5,0.3,0.8,0.5c0.1,0.1,0.2,0.1,0.3,0.2c0.4,0.3,0.7,0.5,1.1,0.7c0.1,0.1,0.2,0.1,0.3,0.2  c0.2,0.2,0.5,0.3,0.8,0.5c0.2,0,0.3,0.1,0.5,0.2c0.2,0.2,0.5,0.3,0.7,0.4c0.1,0,0.2,0.1,0.3,0.1c0.3,0.1,0.6,0.3,0.9,0.4  c0.1,0,0.1,0.1,0.2,0.1c0.4,0.1,0.7,0.3,1.1,0.4c0.1,0,0.2,0.1,0.3,0.1c0.3,0.2,0.7,0.3,1,0.4c0.1,0.1,0.1,0.1,0.2,0.1  c0.4,0.2,0.7,0.3,1.1,0.4c0.1,0,0.2,0.1,0.3,0.1c0.4,0.1,0.8,0.2,1.2,0.3c10.3,2.4,21.3,0.3,27.5-7.8C90.5,77.8,83.1,97.6,57.8,93z   M68,74.5c-0.4,0-0.7-0.2-1.1-0.3c-0.1,0-0.2-0.1-0.3-0.1c-0.3-0.1-0.5-0.2-0.8-0.3c-0.2,0-0.3-0.1-0.4-0.1  c-0.2-0.1-0.5-0.2-0.8-0.3c-0.1,0-0.1-0.1-0.2-0.1c-0.3-0.2-0.7-0.3-1-0.5c-0.1,0-0.1,0-0.1,0c-0.2-0.1-0.3-0.2-0.5-0.3  c0,0-0.1-0.1-0.2-0.1c-0.2-0.1-0.5-0.3-0.7-0.4c0-0.1-0.1-0.1-0.1-0.1c-0.3-0.2-0.5-0.3-0.8-0.5c0-0.1-0.1-0.1-0.2-0.2  c-0.2-0.1-0.3-0.2-0.5-0.3c-0.4-0.3-0.8-0.5-1.1-0.8c0-0.1-0.1-0.1-0.2-0.2c-0.3-0.2-0.7-0.5-1-0.8c-0.3-0.3-0.6-0.5-0.9-0.8  c-0.1-0.1-0.1-0.1-0.2-0.2c-0.3-0.3-0.6-0.6-0.9-0.9c-0.7-0.6-1.3-1.6-1.9-2.4c-0.6-0.9-1.2-1.8-1.7-2.8c-3-5.8-3.2-13,0.6-18.5  l3.2-4.6c-2.5,4.3-2.9,9.5-1.4,14.2c1.4,4.5,4.3,8.5,8,11.4c0,0.1,0.1,0.1,0.2,0.2c0.4,0.3,0.7,0.6,1.1,0.8c0.2,0.1,0.3,0.2,0.5,0.3  c0,0.1,0.1,0.1,0.2,0.2c0.3,0.2,0.5,0.3,0.8,0.5c0.1,0,0.1,0.1,0.2,0.1c0.2,0.2,0.4,0.3,0.6,0.4c0.1,0.1,0.2,0.1,0.3,0.2  c0.2,0.1,0.3,0.2,0.5,0.3c0.3,0.2,0.7,0.3,1,0.5c0,0,0.1,0.1,0.2,0.1c0.2,0.1,0.5,0.2,0.8,0.3c0.1,0,0.2,0.1,0.3,0.1  c0.3,0.1,0.5,0.2,0.8,0.3c0.1,0,0.2,0.1,0.3,0.1c0.4,0.1,0.7,0.2,1.1,0.3c8.4,2.2,16.3-0.6,20.4-6.5C92.1,62.7,87.6,77.7,68,74.5z"/></svg>