<?xml version="1.0" ?><!DOCTYPE svg  PUBLIC '-//W3C//DTD SVG 1.1//EN'  'http://www.w3.org/Graphics/SVG/1.1/DTD/svg11.dtd'><svg id="Lager_1" style="enable-background:new 0 0 128 128;" version="1.1" viewBox="0 0 128 128" xml:space="preserve" xmlns="http://www.w3.org/2000/svg" xmlns:xlink="http://www.w3.org/1999/xlink"><path d="M64,14c-27.6,0-50,22.4-50,50s22.4,50,50,50s50-22.4,50-50S91.6,14,64,14z M57.1,69.1c0,11-5.3,14.9-13.7,14.9  c-2.1,0-4.7-0.3-6.4-0.9l1-7.1c1.2,0.4,2.8,0.7,4.5,0.7c3.7,0,6-1.7,6-7.6l-0.1-24.5h8.7V69.1z M74,84c-4.4,0-8.8-1.2-11-2.4  l1.8-7.2c2.3,1.2,6,2.4,9.7,2.4c4,0,6.1-1.7,6.1-4.3c0-2.4-1.8-3.8-6.5-5.4c-6.4-2.3-10.7-5.9-10.7-11.6C63.4,49,69,44,78.1,44  c4.4,0,7.6,0.9,9.9,2l-2,7c-1.5-0.7-4.3-1.8-8-1.8c-3.8,0-5.6,1.8-5.6,3.7c0,2.5,2.1,3.6,7.2,5.5c6.8,2.5,10,6.1,10,11.6  C89.6,78.5,84.7,84,74,84z"/></svg>