<?xml version="1.0" encoding="UTF-8" standalone="no"?>
<svg width="200px" height="200px" viewBox="0 0 200 200" version="1.1" xmlns="http://www.w3.org/2000/svg" xmlns:xlink="http://www.w3.org/1999/xlink" xmlns:sketch="http://www.bohemiancoding.com/sketch/ns">
    <title>Twitter</title>
    <description>Created with Sketch (http://www.bohemiancoding.com/sketch)</description>
    <defs></defs>
    <g id="Page-1" stroke="none" stroke-width="1" fill="none" fill-rule="evenodd" sketch:type="MSPage">
        <path d="M100,0 C44.772,0 0,44.772 0,100 C0,155.228 44.772,200 100,200 C155.228,200 200,155.228 200,100 C200,44.772 155.228,0 100,0 Z M129.748137,46.4811348 C134.581877,47.4198007 140.498195,50.11799 143.11379,52.6565681 L145.24109,54.6745097 L149.382134,53.6066348 C151.69491,53.0061927 155.234102,51.7939076 157.308409,50.8742431 C159.382716,49.9545786 161.275332,49.2743308 161.449453,49.4491431 C162.172432,50.174994 157.989751,56.0844086 154.352143,59.424843 L150.449569,62.9894931 L153.878989,62.5144598 C155.798102,62.2598419 159.132891,61.4503851 161.214768,60.7321347 C163.470766,59.9530801 165,59.7136633 165,60.1392931 C165,60.5307206 162.255707,63.5253307 158.966341,66.7897597 L153.053809,72.7257762 L152.580655,79.4940511 C151.119555,100.376516 143.549092,117.489117 129.513452,131.747717 C118.487072,142.950903 105.768693,149.760981 90.5974843,152.649184 C83.7045772,153.964076 71.1943862,154.397306 65.2818542,153.59925 C58.0369206,152.622582 49.0356394,149.89399 41.6241556,146.355942 L35,143.148517 L41.9799674,142.673484 C50.2999068,142.149047 56.0421034,140.76195 62.6814,137.687534 C67.5870603,135.414975 74.0711624,131.428495 73.5639413,130.919259 C73.412532,130.767248 71.5047752,130.254212 69.3055556,129.851384 C61.4322735,128.403483 54.0889238,123.136313 50.3793967,116.075418 L48.604123,112.632376 L54.0472863,112.275151 C59.5055905,111.933127 61.473911,111.317484 59.1346378,110.610634 C52.0638248,108.482485 44.9513743,102.588271 41.745283,96.2418261 C40.454519,93.6842467 38.5505474,86.7791622 38.5505474,84.6054097 C38.5505474,84.4762006 39.2053925,84.7878225 39.9700093,85.1982513 C41.4500349,85.992507 50.2431283,87.9458441 50.6178663,87.5734179 C50.7389937,87.4518094 49.0924179,85.6162806 47.0673189,83.5375348 C45.0460051,81.4587889 42.5666783,77.9853452 41.5068134,75.8191932 C39.7656068,72.2507429 39.6179828,71.2246709 39.6141975,64.7756184 C39.6104123,59.2994342 39.9018751,56.8900652 40.9163173,54.3248852 L42.218437,50.9996519 L44.9400186,54.0854684 C57.3593641,68.0666493 75.50198,77.1796887 95.329024,79.3800431 L99.1142558,79.7372681 L98.8795714,74.3940933 C98.6146052,67.8842365 99.837235,63.2365104 103.137957,58.2429601 C108.179886,50.6044241 117.355288,45.8046874 126.080247,46.0061015 C127.325588,46.0365037 128.533077,46.2455183 129.748137,46.4811348 Z" id="Twitter" fill="#808080" sketch:type="MSShapeGroup"></path>
    </g>
</svg>