<?xml version="1.0" encoding="iso-8859-1"?>
<!-- Generator: Adobe Illustrator 19.0.0, SVG Export Plug-In . SVG Version: 6.00 Build 0)  -->
<svg version="1.1" id="Capa_1" xmlns="http://www.w3.org/2000/svg" xmlns:xlink="http://www.w3.org/1999/xlink" x="0px" y="0px"
	 viewBox="0 0 512.002 512.002" style="enable-background:new 0 0 512.002 512.002;" xml:space="preserve">
<path style="fill:#EAE8E8;" d="M512,484.159c0,15.377-12.466,27.843-27.843,27.843H27.844C12.467,512.002,0,499.536,0,484.159
	V27.843C0.001,12.466,12.465,0,27.844,0h456.315c15.377,0,27.843,12.466,27.843,27.843v456.316H512z"/>
<path style="fill:#D3D1D1;" d="M20.606,484.159V27.843C20.606,12.466,33.07,0,48.449,0H27.844C12.465,0,0.001,12.466,0.001,27.843
	v456.316c0,15.377,12.466,27.843,27.843,27.843h20.605C33.07,512.002,20.606,499.536,20.606,484.159z"/>
<g>
	<polygon style="fill:#585A60;" points="79.947,432.471 92.521,400.124 100.854,432.463 119.88,432.463 111.73,400.037 
		140.856,372.273 121.393,372.273 93.758,397.296 102.671,372.278 86.206,372.273 63.724,432.463 	"/>
	<path style="fill:#585A60;" d="M186.177,382.472c-5.53-15.613-32.737-14.656-44.771-4.252
		c-12.508,10.815-33.85,58.316,9.903,55.688c20.944-1.265,27.168-14.734,33.59-32.717
		C187.059,395.178,188.249,388.464,186.177,382.472L186.177,382.472z M170.294,391.413c-3.107,11.545-7,24.947-13.598,28.671
		c-5.874,3.335-14.518,1.001-14.9-5.465c-0.297-6.268,5.562-19.764,8.66-25.552C155.689,378.618,173.115,381.15,170.294,391.413
		L170.294,391.413z"/>
	<path style="fill:#585A60;" d="M195.057,432.471l16.025-44.961l1.46,44.961h23.386l22.466-60.197h-15.302l-15.863,43.776
		l-1.254-43.776H201.73l-22.036,60.197C181.617,432.471,193.133,432.471,195.057,432.471z"/>
	<path style="fill:#585A60;" d="M283.617,420.509l-0.335,11.968h15.747l1.072-60.208h-21.179l-39.537,60.203h16.346l8.168-11.924
		C263.898,420.547,283.616,420.509,283.617,420.509z M285.152,386.485l-0.811,21.903l-12.441,0.033L285.152,386.485L285.152,386.485
		z"/>
	<polygon style="fill:#585A60;" points="351.254,372.281 324.342,372.281 301.859,432.469 317.191,432.469 333.836,387.825 
		330.372,432.477 346.595,432.477 375.158,388.458 358.507,432.472 374.308,432.472 396.905,372.29 369.689,372.29 345.966,411.137 
			"/>
	<polygon style="fill:#585A60;" points="407.475,372.284 384.927,432.477 400.519,432.477 423.293,372.284 	"/>
</g>
<path style="fill:#EA473B;" d="M398.173,166.265h-81.741c-2.297,0-4.278,1.615-4.739,3.865c-4.786,23.314-5.256,27.377-9.099,36.535
	c-4.974,11.869-11.53,23.459-21.963,31.031c-45.095,30.53-85.816-8.642-115.232,90.604c-0.435,1.462-0.153,3.045,0.762,4.268
	c1.995,2.679-2.484,1.944,78.383,1.944c2.252,0,4.207-1.554,4.714-3.75c6.645-28.742,22.372-53.868,35.931-66.19
	c31.867-29.159,62.536-4.143,94.647-41.214c8.371-9.693,12.029-17.264,22.935-50.755
	C403.79,169.479,401.462,166.265,398.173,166.265z"/>
<path style="fill:#F7AC16;" d="M336.159,78.005H254.42c-2.299,0-4.278,1.616-4.742,3.865c-4.657,22.682-5.559,32.085-15.1,48.906
	c-19.185,33.874-51.508,30.034-77.016,37.48c-31.463,9.103-44.039,37.58-54.177,71.782c-0.92,3.099,1.41,6.214,4.638,6.214h74.507
	c2.253,0,4.207-1.555,4.714-3.751c6.669-28.858,22.285-53.782,36.451-66.691c31.003-28.251,62.158-3.827,94.127-40.713
	c8.748-10.136,12.354-18.279,22.935-50.757C341.776,81.246,339.467,78.005,336.159,78.005z"/>
<path style="fill:#D82B27;" d="M186.003,328.3c3.493-11.786,6.983-21.478,10.985-30.501c34.574-75.851,94.619-15.741,126.211-91.134
	c3.872-9.225,4.356-13.433,9.099-36.535c0.461-2.251,2.442-3.865,4.739-3.865h-20.606c-2.297,0-4.278,1.615-4.739,3.865
	l-4.25,20.701c-3.656,17.326-13.158,36.955-26.813,46.865c-45.095,30.53-85.816-8.642-115.232,90.604
	c-0.435,1.462-0.153,3.045,0.762,4.268c1.881,2.526,2.235,1.944,24.482,1.944C187.413,334.511,185.082,331.398,186.003,328.3z"/>
<path style="fill:#F49B19;" d="M123.99,240.039c29.802-100.535,72.477-59.654,115.421-90.739
	c14.226-10.871,23.139-30.222,26.622-46.728l4.25-20.701c0.464-2.25,2.443-3.865,4.742-3.865h-20.605
	c-2.299,0-4.278,1.616-4.742,3.865c-4.541,22.12-5.463,31.915-15.1,48.906c-19.185,33.874-51.508,30.034-77.016,37.48
	c-31.463,9.103-44.039,37.58-54.177,71.782c-0.92,3.099,1.41,6.214,4.638,6.214h20.606
	C125.396,246.253,123.072,243.134,123.99,240.039z"/>
<g>
</g>
<g>
</g>
<g>
</g>
<g>
</g>
<g>
</g>
<g>
</g>
<g>
</g>
<g>
</g>
<g>
</g>
<g>
</g>
<g>
</g>
<g>
</g>
<g>
</g>
<g>
</g>
<g>
</g>
</svg>
